<?xml version="1.0" standalone="no"?>
<!DOCTYPE svg PUBLIC "-//W3C//DTD SVG 20010904//EN"
 "http://www.w3.org/TR/2001/REC-SVG-20010904/DTD/svg10.dtd">
<svg version="1.0" xmlns="http://www.w3.org/2000/svg"
 width="1024.000000pt" height="1024.000000pt" viewBox="0 0 1024.000000 1024.000000"
 preserveAspectRatio="xMidYMid meet">
<metadata>
Created by potrace 1.11, written by Peter Selinger 2001-2013
</metadata>
<g transform="translate(0.000000,1024.000000) scale(0.100000,-0.100000)"
fill="#000000" stroke="none">
<path d="M660 5120 l0 -4460 4460 0 4460 0 0 4460 0 4460 -4460 0 -4460 0 0
-4460z m2920 2930 l0 -1390 -1390 0 -1390 0 0 1383 c0 761 3 1387 7 1390 3 4
629 7 1390 7 l1383 0 0 -1390z m2930 0 l0 -1390 -1390 0 -1390 0 0 1390 0
1390 1390 0 1390 0 0 -1390z m2928 -2 l2 -1388 -1390 0 -1390 0 0 1390 0 1390
1388 -2 1387 -3 3 -1387z m-5858 -2928 l0 -1390 -1390 0 -1390 0 0 1390 0
1390 1390 0 1390 0 0 -1390z m2930 0 l0 -1390 -1390 0 -1390 0 0 1390 0 1390
1390 0 1390 0 0 -1390z m2930 0 l0 -1390 -1390 0 -1390 0 0 1390 0 1390 1390
0 1390 0 0 -1390z m-5860 -2930 l0 -1390 -1388 2 -1387 3 -3 1388 -2 1387
1390 0 1390 0 0 -1390z m2930 0 l0 -1390 -1390 0 -1390 0 0 1390 0 1390 1390
0 1390 0 0 -1390z m2928 3 l-3 -1388 -1387 -3 -1388 -2 0 1390 0 1390 1390 0
1390 0 -2 -1387z"/>
<path d="M5005 9210 c-529 -54 -954 -456 -1040 -980 -99 -616 310 -1205 923
-1330 208 -42 457 -21 654 55 322 125 577 393 688 723 201 600 -124 1261 -722
1471 -154 54 -345 77 -503 61z"/>
<path d="M7858 6274 c-246 -38 -480 -163 -659 -351 -213 -224 -319 -490 -319
-803 0 -313 106 -579 319 -803 267 -281 641 -410 1021 -353 491 75 883 452
976 942 22 117 22 311 0 428 -119 625 -708 1039 -1338 940z"/>
<path d="M1983 3345 c-300 -54 -583 -239 -756 -494 -322 -476 -250 -1119 169
-1510 518 -484 1345 -399 1755 182 141 199 209 419 209 672 0 249 -59 444
-197 653 -169 256 -458 444 -761 497 -103 18 -319 18 -419 0z"/>
<path d="M4885 3340 c-410 -86 -742 -382 -875 -778 -157 -468 6 -994 400
-1297 308 -236 729 -303 1098 -174 277 97 512 302 647 560 177 342 178 745 2
1083 -138 266 -402 489 -679 574 -180 56 -418 68 -593 32z"/>
<path d="M7875 3353 c-16 -2 -64 -13 -106 -23 -425 -104 -745 -425 -861 -860
-26 -97 -36 -334 -18 -451 76 -527 514 -937 1053 -988 479 -46 939 215 1152
653 339 694 -84 1529 -843 1661 -78 14 -301 18 -377 8z"/>
</g>
</svg>
